<svg xmlns="http://www.w3.org/2000/svg" xmlns:xlink="http://www.w3.org/1999/xlink" width="500" zoomAndPan="magnify" viewBox="0 0 375 374.999991" height="500" preserveAspectRatio="xMidYMid meet" version="1.0"><defs><g/><clipPath id="8886a2dd93"><path d="M 142.171875 110 L 148 110 L 148 116 L 142.171875 116 Z M 142.171875 110 " clip-rule="nonzero"/></clipPath><clipPath id="d2842905d0"><path d="M 170 106.164062 L 181 106.164062 L 181 117 L 170 117 Z M 170 106.164062 " clip-rule="nonzero"/></clipPath><clipPath id="cb8a36b441"><path d="M 163 114 L 253.171875 114 L 253.171875 203.664062 L 163 203.664062 Z M 163 114 " clip-rule="nonzero"/></clipPath></defs><path fill="#40b93c" d="M 153.964844 120.496094 L 160.128906 120.496094 L 160.128906 114.355469 L 153.964844 114.355469 L 153.964844 120.496094 " fill-opacity="1" fill-rule="nonzero"/><g clip-path="url(#8886a2dd93)"><path fill="#40b93c" d="M 142.171875 115.238281 L 147.261719 115.238281 L 147.261719 110.171875 L 142.171875 110.171875 L 142.171875 115.238281 " fill-opacity="1" fill-rule="nonzero"/></g><g clip-path="url(#d2842905d0)"><path fill="#40b93c" d="M 170.40625 116.402344 L 180.679688 116.402344 L 180.679688 106.167969 L 170.40625 106.167969 L 170.40625 116.402344 " fill-opacity="1" fill-rule="nonzero"/></g><path fill="#40b93c" d="M 151.910156 142.5 L 162.183594 142.5 L 162.183594 132.265625 L 151.910156 132.265625 L 151.910156 142.5 " fill-opacity="1" fill-rule="nonzero"/><path fill="#40b93c" d="M 144.71875 132.265625 L 151.910156 132.265625 L 151.910156 125.101562 L 144.71875 125.101562 L 144.71875 132.265625 " fill-opacity="1" fill-rule="nonzero"/><g clip-path="url(#cb8a36b441)"><path fill="#40b93c" d="M 175.074219 168.800781 C 175.074219 168.800781 193.109375 166.808594 199.855469 189.070312 C 196.378906 188.332031 188.589844 185.582031 181.152344 175.390625 C 181.152344 175.390625 187.421875 188.535156 200.402344 191.027344 C 174.332031 195.234375 175.074219 168.800781 175.074219 168.800781 Z M 194.292969 142.5 L 184.019531 142.5 L 184.019531 132.265625 L 194.292969 132.265625 Z M 230.257812 167.371094 C 230.257812 167.371094 235.78125 184.585938 215.203125 195.574219 C 215.246094 192.035156 216.414062 183.882812 224.976562 174.609375 C 224.976562 174.609375 213.273438 183.328125 213.386719 196.496094 C 204.09375 171.867188 230.257812 167.371094 230.257812 167.371094 Z M 163.210938 158.855469 C 163.210938 183.601562 183.351562 203.660156 208.191406 203.660156 C 208.726562 203.660156 209.257812 203.648438 209.789062 203.628906 C 201.496094 193.226562 198.570312 179.6875 201.449219 167.042969 C 194.847656 138.171875 227.207031 131.125 227.207031 131.125 C 227.207031 131.125 236.503906 156.21875 206.804688 173.800781 C 206.632812 168.566406 207.824219 156.4375 219.871094 142.171875 C 219.871094 142.171875 204.933594 154.023438 204.203125 171.429688 C 203.726562 182.871094 208.273438 194.300781 216.914062 202.816406 C 237.582031 198.769531 253.171875 180.628906 253.171875 158.855469 C 253.171875 134.109375 233.035156 114.050781 208.191406 114.050781 C 199.292969 114.050781 191 116.625 184.019531 121.066406 L 184.019531 127.917969 L 175.664062 127.917969 C 175.625 127.957031 175.582031 127.996094 175.542969 128.039062 L 175.542969 127.917969 L 173.746094 127.917969 L 173.746094 123.308594 L 165.269531 123.308594 L 165.269531 132.265625 L 175.542969 132.265625 L 175.542969 142.5 L 166.308594 142.5 C 164.3125 147.566406 163.210938 153.082031 163.210938 158.855469 " fill-opacity="1" fill-rule="nonzero"/></g><g fill="#000000" fill-opacity="1"><g transform="translate(111.639776, 232.348785)"><g><path d="M 8.609375 -11.796875 C 10.265625 -11.796875 11.609375 -11.238281 12.640625 -10.125 C 13.671875 -9.019531 14.1875 -7.582031 14.1875 -5.8125 C 14.1875 -4.050781 13.679688 -2.625 12.671875 -1.53125 C 11.660156 -0.445312 10.316406 0.09375 8.640625 0.09375 C 6.765625 0.09375 5.390625 -0.613281 4.515625 -2.03125 L 4.515625 0 L 1.984375 0 L 1.984375 -16.328125 L 4.515625 -16.328125 L 4.515625 -9.6875 C 5.390625 -11.09375 6.753906 -11.796875 8.609375 -11.796875 Z M 5.515625 -3.125 C 6.179688 -2.414062 7.035156 -2.0625 8.078125 -2.0625 C 9.117188 -2.0625 9.972656 -2.414062 10.640625 -3.125 C 11.304688 -3.84375 11.640625 -4.765625 11.640625 -5.890625 C 11.640625 -6.992188 11.304688 -7.898438 10.640625 -8.609375 C 9.972656 -9.328125 9.117188 -9.6875 8.078125 -9.6875 C 7.035156 -9.6875 6.179688 -9.328125 5.515625 -8.609375 C 4.847656 -7.898438 4.515625 -6.992188 4.515625 -5.890625 C 4.515625 -4.765625 4.847656 -3.84375 5.515625 -3.125 Z M 5.515625 -3.125 "/></g></g></g><g fill="#000000" fill-opacity="1"><g transform="translate(126.597111, 232.348785)"><g><path d="M 8.890625 0 L 8.890625 -1.4375 C 8.054688 -0.40625 6.765625 0.109375 5.015625 0.109375 C 3.765625 0.109375 2.765625 -0.226562 2.015625 -0.90625 C 1.273438 -1.59375 0.90625 -2.460938 0.90625 -3.515625 C 0.90625 -4.585938 1.289062 -5.4375 2.0625 -6.0625 C 2.84375 -6.695312 3.929688 -7.023438 5.328125 -7.046875 L 8.859375 -7.046875 L 8.859375 -7.390625 C 8.859375 -8.140625 8.617188 -8.71875 8.140625 -9.125 C 7.671875 -9.539062 6.984375 -9.75 6.078125 -9.75 C 4.941406 -9.75 3.789062 -9.351562 2.625 -8.5625 L 1.578125 -10.3125 C 2.472656 -10.84375 3.273438 -11.222656 3.984375 -11.453125 C 4.703125 -11.679688 5.582031 -11.796875 6.625 -11.796875 C 8.113281 -11.796875 9.269531 -11.429688 10.09375 -10.703125 C 10.914062 -9.972656 11.335938 -8.960938 11.359375 -7.671875 L 11.375 0 Z M 5.546875 -1.890625 C 6.441406 -1.890625 7.195312 -2.097656 7.8125 -2.515625 C 8.4375 -2.929688 8.785156 -3.460938 8.859375 -4.109375 L 8.859375 -5.1875 L 5.703125 -5.1875 C 4.859375 -5.1875 4.242188 -5.066406 3.859375 -4.828125 C 3.472656 -4.585938 3.28125 -4.1875 3.28125 -3.625 C 3.28125 -3.101562 3.476562 -2.679688 3.875 -2.359375 C 4.28125 -2.046875 4.835938 -1.890625 5.546875 -1.890625 Z M 5.546875 -1.890625 "/></g></g></g><g fill="#000000" fill-opacity="1"><g transform="translate(139.486808, 232.348785)"><g><path d="M 12.4375 -11.703125 L 12.4375 -1.140625 C 12.4375 0.523438 11.882812 1.851562 10.78125 2.84375 C 9.675781 3.832031 8.203125 4.328125 6.359375 4.328125 C 4.628906 4.328125 3.007812 3.816406 1.5 2.796875 L 2.578125 0.96875 C 3.722656 1.820312 4.945312 2.25 6.25 2.25 C 7.363281 2.25 8.253906 1.945312 8.921875 1.34375 C 9.585938 0.738281 9.921875 -0.0664062 9.921875 -1.078125 L 9.921875 -2.546875 C 9.097656 -1.234375 7.804688 -0.578125 6.046875 -0.578125 C 4.460938 -0.578125 3.1875 -1.097656 2.21875 -2.140625 C 1.25 -3.179688 0.765625 -4.539062 0.765625 -6.21875 C 0.765625 -7.882812 1.238281 -9.222656 2.1875 -10.234375 C 3.144531 -11.253906 4.40625 -11.773438 5.96875 -11.796875 C 7.75 -11.804688 9.066406 -11.144531 9.921875 -9.8125 L 9.921875 -11.703125 Z M 6.5625 -2.546875 C 7.539062 -2.546875 8.34375 -2.882812 8.96875 -3.5625 C 9.601562 -4.238281 9.921875 -5.101562 9.921875 -6.15625 C 9.921875 -7.21875 9.609375 -8.082031 8.984375 -8.75 C 8.359375 -9.414062 7.546875 -9.75 6.546875 -9.75 C 5.554688 -9.75 4.742188 -9.414062 4.109375 -8.75 C 3.484375 -8.082031 3.160156 -7.21875 3.140625 -6.15625 C 3.160156 -5.101562 3.476562 -4.238281 4.09375 -3.5625 C 4.71875 -2.882812 5.539062 -2.546875 6.5625 -2.546875 Z M 6.5625 -2.546875 "/></g></g></g><g fill="#000000" fill-opacity="1"><g transform="translate(153.564299, 232.348785)"><g><path d="M 2.0625 -16.15625 C 2.34375 -16.445312 2.695312 -16.59375 3.125 -16.59375 C 3.550781 -16.59375 3.898438 -16.445312 4.171875 -16.15625 C 4.453125 -15.875 4.59375 -15.503906 4.59375 -15.046875 C 4.59375 -14.609375 4.453125 -14.242188 4.171875 -13.953125 C 3.898438 -13.671875 3.550781 -13.53125 3.125 -13.53125 C 2.695312 -13.53125 2.34375 -13.671875 2.0625 -13.953125 C 1.789062 -14.242188 1.65625 -14.609375 1.65625 -15.046875 C 1.65625 -15.503906 1.789062 -15.875 2.0625 -16.15625 Z M 4.375 0 L 1.875 0 L 1.875 -11.703125 L 4.375 -11.703125 Z M 4.375 0 "/></g></g></g><g fill="#000000" fill-opacity="1"><g transform="translate(159.811182, 232.348785)"><g><path d="M 8.609375 -11.796875 C 10.265625 -11.796875 11.609375 -11.238281 12.640625 -10.125 C 13.671875 -9.019531 14.1875 -7.582031 14.1875 -5.8125 C 14.1875 -4.050781 13.679688 -2.625 12.671875 -1.53125 C 11.660156 -0.445312 10.316406 0.09375 8.640625 0.09375 C 6.765625 0.09375 5.390625 -0.613281 4.515625 -2.03125 L 4.515625 4.265625 L 1.984375 4.265625 L 1.984375 -11.703125 L 4.515625 -11.703125 L 4.515625 -9.6875 C 5.390625 -11.09375 6.753906 -11.796875 8.609375 -11.796875 Z M 5.515625 -3.125 C 6.179688 -2.414062 7.035156 -2.0625 8.078125 -2.0625 C 9.117188 -2.0625 9.972656 -2.414062 10.640625 -3.125 C 11.304688 -3.84375 11.640625 -4.765625 11.640625 -5.890625 C 11.640625 -6.992188 11.304688 -7.898438 10.640625 -8.609375 C 9.972656 -9.328125 9.117188 -9.6875 8.078125 -9.6875 C 7.035156 -9.6875 6.179688 -9.328125 5.515625 -8.609375 C 4.847656 -7.898438 4.515625 -6.992188 4.515625 -5.890625 C 4.515625 -4.765625 4.847656 -3.84375 5.515625 -3.125 Z M 5.515625 -3.125 "/></g></g></g><g fill="#000000" fill-opacity="1"><g transform="translate(174.768517, 232.348785)"><g><path d="M 8.890625 0 L 8.890625 -1.4375 C 8.054688 -0.40625 6.765625 0.109375 5.015625 0.109375 C 3.765625 0.109375 2.765625 -0.226562 2.015625 -0.90625 C 1.273438 -1.59375 0.90625 -2.460938 0.90625 -3.515625 C 0.90625 -4.585938 1.289062 -5.4375 2.0625 -6.0625 C 2.84375 -6.695312 3.929688 -7.023438 5.328125 -7.046875 L 8.859375 -7.046875 L 8.859375 -7.390625 C 8.859375 -8.140625 8.617188 -8.71875 8.140625 -9.125 C 7.671875 -9.539062 6.984375 -9.75 6.078125 -9.75 C 4.941406 -9.75 3.789062 -9.351562 2.625 -8.5625 L 1.578125 -10.3125 C 2.472656 -10.84375 3.273438 -11.222656 3.984375 -11.453125 C 4.703125 -11.679688 5.582031 -11.796875 6.625 -11.796875 C 8.113281 -11.796875 9.269531 -11.429688 10.09375 -10.703125 C 10.914062 -9.972656 11.335938 -8.960938 11.359375 -7.671875 L 11.375 0 Z M 5.546875 -1.890625 C 6.441406 -1.890625 7.195312 -2.097656 7.8125 -2.515625 C 8.4375 -2.929688 8.785156 -3.460938 8.859375 -4.109375 L 8.859375 -5.1875 L 5.703125 -5.1875 C 4.859375 -5.1875 4.242188 -5.066406 3.859375 -4.828125 C 3.472656 -4.585938 3.28125 -4.1875 3.28125 -3.625 C 3.28125 -3.101562 3.476562 -2.679688 3.875 -2.359375 C 4.28125 -2.046875 4.835938 -1.890625 5.546875 -1.890625 Z M 5.546875 -1.890625 "/></g></g></g><g fill="#000000" fill-opacity="1"><g transform="translate(187.658215, 232.348785)"><g><path d="M 8.71875 -11.796875 C 10.082031 -11.796875 11.144531 -11.394531 11.90625 -10.59375 C 12.675781 -9.789062 13.0625 -8.6875 13.0625 -7.28125 L 13.0625 0 L 10.53125 0 L 10.53125 -6.578125 C 10.53125 -7.453125 10.28125 -8.144531 9.78125 -8.65625 C 9.289062 -9.164062 8.601562 -9.421875 7.71875 -9.421875 C 6.78125 -9.398438 6.015625 -9.097656 5.421875 -8.515625 C 4.828125 -7.929688 4.488281 -7.164062 4.40625 -6.21875 L 4.40625 0 L 1.875 0 L 1.875 -11.703125 L 4.40625 -11.703125 L 4.40625 -9.453125 C 5.195312 -11.015625 6.632812 -11.796875 8.71875 -11.796875 Z M 8.71875 -11.796875 "/></g></g></g><g fill="#000000" fill-opacity="1"><g transform="translate(202.241614, 232.348785)"><g><path d="M 6.6875 -11.796875 C 8.695312 -11.796875 10.148438 -11.1875 11.046875 -9.96875 C 11.953125 -8.757812 12.328125 -7.066406 12.171875 -4.890625 L 3.328125 -4.890625 C 3.523438 -3.972656 3.945312 -3.253906 4.59375 -2.734375 C 5.238281 -2.210938 6.023438 -1.953125 6.953125 -1.953125 C 8.273438 -1.953125 9.375 -2.410156 10.25 -3.328125 L 11.59375 -1.890625 C 10.394531 -0.566406 8.78125 0.09375 6.75 0.09375 C 4.945312 0.09375 3.5 -0.453125 2.40625 -1.546875 C 1.3125 -2.640625 0.765625 -4.066406 0.765625 -5.828125 C 0.765625 -7.585938 1.3125 -9.015625 2.40625 -10.109375 C 3.507812 -11.210938 4.9375 -11.773438 6.6875 -11.796875 Z M 3.28125 -6.734375 L 9.96875 -6.734375 C 9.925781 -7.671875 9.609375 -8.410156 9.015625 -8.953125 C 8.429688 -9.492188 7.660156 -9.765625 6.703125 -9.765625 C 5.785156 -9.765625 5.019531 -9.492188 4.40625 -8.953125 C 3.800781 -8.410156 3.425781 -7.671875 3.28125 -6.734375 Z M 3.28125 -6.734375 "/></g></g></g><g fill="#000000" fill-opacity="1"><g transform="translate(215.175314, 232.348785)"><g><path d="M 8.71875 -11.796875 C 10.082031 -11.796875 11.144531 -11.394531 11.90625 -10.59375 C 12.675781 -9.789062 13.0625 -8.6875 13.0625 -7.28125 L 13.0625 0 L 10.53125 0 L 10.53125 -6.578125 C 10.53125 -7.453125 10.28125 -8.144531 9.78125 -8.65625 C 9.289062 -9.164062 8.601562 -9.421875 7.71875 -9.421875 C 6.78125 -9.398438 6.015625 -9.097656 5.421875 -8.515625 C 4.828125 -7.929688 4.488281 -7.164062 4.40625 -6.21875 L 4.40625 0 L 1.875 0 L 1.875 -11.703125 L 4.40625 -11.703125 L 4.40625 -9.453125 C 5.195312 -11.015625 6.632812 -11.796875 8.71875 -11.796875 Z M 8.71875 -11.796875 "/></g></g></g><g fill="#000000" fill-opacity="1"><g transform="translate(229.758713, 232.348785)"><g><path d="M 1.40625 -2.296875 C 1.664062 -2.566406 1.992188 -2.703125 2.390625 -2.703125 C 2.785156 -2.703125 3.113281 -2.566406 3.375 -2.296875 C 3.644531 -2.023438 3.78125 -1.6875 3.78125 -1.28125 C 3.78125 -0.851562 3.644531 -0.5 3.375 -0.21875 C 3.113281 0.0625 2.785156 0.203125 2.390625 0.203125 C 1.992188 0.203125 1.664062 0.0625 1.40625 -0.21875 C 1.144531 -0.5 1.015625 -0.851562 1.015625 -1.28125 C 1.015625 -1.6875 1.144531 -2.023438 1.40625 -2.296875 Z M 1.40625 -2.296875 "/></g></g></g><g fill="#000000" fill-opacity="1"><g transform="translate(234.553856, 232.348785)"><g><path d="M 6.671875 -11.796875 C 8.773438 -11.796875 10.382812 -11.15625 11.5 -9.875 L 10.125 -8.25 C 9.238281 -9.144531 8.125 -9.582031 6.78125 -9.5625 C 5.769531 -9.5625 4.9375 -9.210938 4.28125 -8.515625 C 3.625 -7.828125 3.296875 -6.929688 3.296875 -5.828125 C 3.296875 -4.734375 3.625 -3.835938 4.28125 -3.140625 C 4.9375 -2.441406 5.769531 -2.09375 6.78125 -2.09375 C 8.269531 -2.09375 9.421875 -2.5625 10.234375 -3.5 L 11.640625 -2.09375 C 10.535156 -0.632812 8.878906 0.09375 6.671875 0.09375 C 4.921875 0.09375 3.5 -0.453125 2.40625 -1.546875 C 1.3125 -2.640625 0.765625 -4.066406 0.765625 -5.828125 C 0.765625 -7.597656 1.3125 -9.035156 2.40625 -10.140625 C 3.5 -11.242188 4.921875 -11.796875 6.671875 -11.796875 Z M 6.671875 -11.796875 "/></g></g></g><g fill="#000000" fill-opacity="1"><g transform="translate(246.95964, 232.348785)"><g><path d="M 6.890625 -11.796875 C 8.691406 -11.796875 10.15625 -11.25 11.28125 -10.15625 C 12.414062 -9.0625 12.984375 -7.628906 12.984375 -5.859375 C 12.984375 -4.097656 12.414062 -2.664062 11.28125 -1.5625 C 10.15625 -0.457031 8.691406 0.09375 6.890625 0.09375 C 5.066406 0.09375 3.585938 -0.457031 2.453125 -1.5625 C 1.328125 -2.664062 0.765625 -4.097656 0.765625 -5.859375 C 0.765625 -7.628906 1.328125 -9.0625 2.453125 -10.15625 C 3.585938 -11.25 5.066406 -11.796875 6.890625 -11.796875 Z M 6.890625 -9.609375 C 5.828125 -9.609375 4.960938 -9.253906 4.296875 -8.546875 C 3.628906 -7.847656 3.296875 -6.941406 3.296875 -5.828125 C 3.296875 -4.703125 3.628906 -3.785156 4.296875 -3.078125 C 4.960938 -2.378906 5.820312 -2.03125 6.875 -2.03125 C 7.9375 -2.03125 8.796875 -2.378906 9.453125 -3.078125 C 10.117188 -3.785156 10.453125 -4.703125 10.453125 -5.828125 C 10.453125 -6.941406 10.117188 -7.847656 9.453125 -8.546875 C 8.785156 -9.253906 7.929688 -9.609375 6.890625 -9.609375 Z M 6.890625 -9.609375 "/></g></g></g><g fill="#000000" fill-opacity="1"><g transform="translate(260.707186, 232.348785)"><g><path d="M 17.140625 -11.796875 C 18.472656 -11.796875 19.519531 -11.390625 20.28125 -10.578125 C 21.039062 -9.773438 21.421875 -8.675781 21.421875 -7.28125 L 21.421875 0 L 18.890625 0 L 18.890625 -6.578125 C 18.890625 -7.472656 18.644531 -8.171875 18.15625 -8.671875 C 17.664062 -9.179688 16.988281 -9.4375 16.125 -9.4375 C 15.144531 -9.40625 14.363281 -9.046875 13.78125 -8.359375 C 13.195312 -7.679688 12.90625 -6.820312 12.90625 -5.78125 L 12.90625 0 L 10.390625 0 L 10.390625 -6.578125 C 10.390625 -7.472656 10.140625 -8.171875 9.640625 -8.671875 C 9.148438 -9.179688 8.484375 -9.4375 7.640625 -9.4375 C 6.640625 -9.40625 5.84375 -9.046875 5.25 -8.359375 C 4.664062 -7.679688 4.375 -6.820312 4.375 -5.78125 L 4.375 0 L 1.875 0 L 1.875 -11.703125 L 4.375 -11.703125 L 4.375 -9.4375 C 5.15625 -11.007812 6.570312 -11.796875 8.625 -11.796875 C 9.664062 -11.796875 10.535156 -11.546875 11.234375 -11.046875 C 11.929688 -10.554688 12.414062 -9.863281 12.6875 -8.96875 C 13.40625 -10.851562 14.890625 -11.796875 17.140625 -11.796875 Z M 17.140625 -11.796875 "/></g></g></g></svg>