<svg xmlns="http://www.w3.org/2000/svg" xmlns:xlink="http://www.w3.org/1999/xlink" width="500" zoomAndPan="magnify" viewBox="0 0 375 374.999991" height="500" preserveAspectRatio="xMidYMid meet" version="1.0"><defs><g/><clipPath id="1edbef8297"><path d="M 48.320312 41 L 62 41 L 62 54 L 48.320312 54 Z M 48.320312 41 " clip-rule="nonzero"/></clipPath><clipPath id="68bf55c2ab"><path d="M 119 30.929688 L 145 30.929688 L 145 57 L 119 57 Z M 119 30.929688 " clip-rule="nonzero"/></clipPath><clipPath id="41160eefba"><path d="M 101 50 L 326.570312 50 L 326.570312 276.179688 L 101 276.179688 Z M 101 50 " clip-rule="nonzero"/></clipPath></defs><path fill="#40b93c" d="M 77.875 66.980469 L 93.332031 66.980469 L 93.332031 51.53125 L 77.875 51.53125 L 77.875 66.980469 " fill-opacity="1" fill-rule="nonzero"/><g clip-path="url(#1edbef8297)"><path fill="#40b93c" d="M 48.320312 53.753906 L 61.070312 53.753906 L 61.070312 41.007812 L 48.320312 41.007812 L 48.320312 53.753906 " fill-opacity="1" fill-rule="nonzero"/></g><g clip-path="url(#68bf55c2ab)"><path fill="#40b93c" d="M 119.085938 56.679688 L 144.84375 56.679688 L 144.84375 30.9375 L 119.085938 30.9375 L 119.085938 56.679688 " fill-opacity="1" fill-rule="nonzero"/></g><path fill="#40b93c" d="M 72.726562 122.332031 L 98.480469 122.332031 L 98.480469 96.585938 L 72.726562 96.585938 L 72.726562 122.332031 " fill-opacity="1" fill-rule="nonzero"/><path fill="#40b93c" d="M 54.695312 96.585938 L 72.726562 96.585938 L 72.726562 78.566406 L 54.695312 78.566406 L 54.695312 96.585938 " fill-opacity="1" fill-rule="nonzero"/><g clip-path="url(#41160eefba)"><path fill="#40b93c" d="M 130.792969 188.484375 C 130.792969 188.484375 176.003906 183.472656 192.914062 239.476562 C 184.199219 237.613281 164.671875 230.691406 146.03125 205.058594 C 146.03125 205.058594 161.742188 238.128906 194.28125 244.390625 C 128.925781 254.980469 130.792969 188.484375 130.792969 188.484375 Z M 178.972656 122.332031 L 153.214844 122.332031 L 153.214844 96.585938 L 178.972656 96.585938 Z M 269.125 184.886719 C 269.125 184.886719 282.972656 228.195312 231.386719 255.835938 C 231.492188 246.929688 234.421875 226.421875 255.882812 203.09375 C 255.882812 203.09375 226.550781 225.023438 226.835938 258.148438 C 203.535156 196.203125 269.125 184.886719 269.125 184.886719 Z M 101.058594 163.46875 C 101.058594 225.710938 151.539062 276.167969 213.8125 276.167969 C 215.152344 276.167969 216.484375 276.136719 217.8125 276.089844 C 197.027344 249.925781 189.6875 215.871094 196.902344 184.058594 C 180.359375 111.445312 261.472656 93.714844 261.472656 93.714844 C 261.472656 93.714844 284.78125 156.835938 210.332031 201.066406 C 209.90625 187.894531 212.890625 157.386719 243.085938 121.5 C 243.085938 121.5 205.636719 151.316406 203.8125 195.097656 C 202.617188 223.878906 214.015625 252.628906 235.671875 274.042969 C 287.480469 263.871094 326.570312 218.234375 326.570312 163.46875 C 326.570312 101.226562 276.085938 50.769531 213.8125 50.769531 C 191.507812 50.769531 170.71875 57.246094 153.214844 68.417969 L 153.214844 85.644531 L 132.265625 85.644531 C 132.167969 85.75 132.066406 85.851562 131.964844 85.953125 L 131.964844 85.644531 L 127.457031 85.644531 L 127.457031 74.058594 L 106.210938 74.058594 L 106.210938 96.585938 L 131.964844 96.585938 L 131.964844 122.332031 L 108.8125 122.332031 C 103.808594 135.074219 101.058594 148.949219 101.058594 163.46875 " fill-opacity="1" fill-rule="nonzero"/></g><g fill="#000000" fill-opacity="1"><g transform="translate(16.409402, 328.443625)"><g><path d="M 17.109375 -23.453125 C 20.398438 -23.453125 23.070312 -22.347656 25.125 -20.140625 C 27.1875 -17.941406 28.21875 -15.078125 28.21875 -11.546875 C 28.21875 -8.046875 27.210938 -5.21875 25.203125 -3.0625 C 23.191406 -0.90625 20.519531 0.171875 17.1875 0.171875 C 13.457031 0.171875 10.71875 -1.226562 8.96875 -4.03125 L 8.96875 0 L 3.9375 0 L 3.9375 -32.46875 L 8.96875 -32.46875 L 8.96875 -19.25 C 10.71875 -22.050781 13.429688 -23.453125 17.109375 -23.453125 Z M 10.953125 -6.234375 C 12.285156 -4.816406 13.984375 -4.109375 16.046875 -4.109375 C 18.117188 -4.109375 19.816406 -4.816406 21.140625 -6.234375 C 22.472656 -7.648438 23.140625 -9.476562 23.140625 -11.71875 C 23.140625 -13.90625 22.472656 -15.707031 21.140625 -17.125 C 19.816406 -18.539062 18.117188 -19.25 16.046875 -19.25 C 13.984375 -19.25 12.285156 -18.539062 10.953125 -17.125 C 9.628906 -15.707031 8.96875 -13.90625 8.96875 -11.71875 C 8.96875 -9.476562 9.628906 -7.648438 10.953125 -6.234375 Z M 10.953125 -6.234375 "/></g></g></g><g fill="#000000" fill-opacity="1"><g transform="translate(46.15981, 328.443625)"><g><path d="M 17.671875 0 L 17.671875 -2.84375 C 16.015625 -0.800781 13.445312 0.21875 9.96875 0.21875 C 7.488281 0.21875 5.503906 -0.457031 4.015625 -1.8125 C 2.535156 -3.164062 1.796875 -4.894531 1.796875 -7 C 1.796875 -9.125 2.566406 -10.8125 4.109375 -12.0625 C 5.660156 -13.320312 7.820312 -13.96875 10.59375 -14 L 17.625 -14 L 17.625 -14.703125 C 17.625 -16.191406 17.148438 -17.34375 16.203125 -18.15625 C 15.253906 -18.96875 13.878906 -19.375 12.078125 -19.375 C 9.828125 -19.375 7.535156 -18.585938 5.203125 -17.015625 L 3.15625 -20.515625 C 4.925781 -21.566406 6.519531 -22.316406 7.9375 -22.765625 C 9.351562 -23.222656 11.097656 -23.453125 13.171875 -23.453125 C 16.140625 -23.453125 18.441406 -22.726562 20.078125 -21.28125 C 21.710938 -19.84375 22.546875 -17.835938 22.578125 -15.265625 L 22.625 0 Z M 11.03125 -3.765625 C 12.800781 -3.765625 14.304688 -4.175781 15.546875 -5 C 16.785156 -5.832031 17.476562 -6.894531 17.625 -8.1875 L 17.625 -10.328125 L 11.328125 -10.328125 C 9.671875 -10.328125 8.453125 -10.082031 7.671875 -9.59375 C 6.898438 -9.113281 6.515625 -8.320312 6.515625 -7.21875 C 6.515625 -6.164062 6.914062 -5.328125 7.71875 -4.703125 C 8.519531 -4.078125 9.625 -3.765625 11.03125 -3.765625 Z M 11.03125 -3.765625 "/></g></g></g><g fill="#000000" fill-opacity="1"><g transform="translate(71.797649, 328.443625)"><g><path d="M 24.71875 -23.28125 L 24.71875 -2.28125 C 24.71875 1.050781 23.625 3.703125 21.4375 5.671875 C 19.25 7.640625 16.316406 8.625 12.640625 8.625 C 9.203125 8.625 5.976562 7.601562 2.96875 5.5625 L 5.125 1.921875 C 7.394531 3.617188 9.828125 4.46875 12.421875 4.46875 C 14.640625 4.46875 16.410156 3.867188 17.734375 2.671875 C 19.066406 1.472656 19.734375 -0.128906 19.734375 -2.140625 L 19.734375 -5.078125 C 18.097656 -2.453125 15.53125 -1.140625 12.03125 -1.140625 C 8.882812 -1.140625 6.347656 -2.171875 4.421875 -4.234375 C 2.492188 -6.304688 1.53125 -9.019531 1.53125 -12.375 C 1.53125 -15.675781 2.476562 -18.335938 4.375 -20.359375 C 6.269531 -22.390625 8.765625 -23.421875 11.859375 -23.453125 C 15.410156 -23.484375 18.035156 -22.171875 19.734375 -19.515625 L 19.734375 -23.28125 Z M 13.03125 -5.078125 C 14.988281 -5.078125 16.59375 -5.742188 17.84375 -7.078125 C 19.101562 -8.421875 19.734375 -10.144531 19.734375 -12.25 C 19.734375 -14.351562 19.113281 -16.066406 17.875 -17.390625 C 16.632812 -18.710938 15.019531 -19.375 13.03125 -19.375 C 11.050781 -19.375 9.429688 -18.710938 8.171875 -17.390625 C 6.921875 -16.066406 6.28125 -14.351562 6.25 -12.25 C 6.28125 -10.144531 6.914062 -8.421875 8.15625 -7.078125 C 9.394531 -5.742188 11.019531 -5.078125 13.03125 -5.078125 Z M 13.03125 -5.078125 "/></g></g></g><g fill="#000000" fill-opacity="1"><g transform="translate(99.798031, 328.443625)"><g><path d="M 4.109375 -32.125 C 4.660156 -32.695312 5.359375 -32.984375 6.203125 -32.984375 C 7.054688 -32.984375 7.757812 -32.695312 8.3125 -32.125 C 8.863281 -31.5625 9.140625 -30.828125 9.140625 -29.921875 C 9.140625 -29.046875 8.863281 -28.320312 8.3125 -27.75 C 7.757812 -27.1875 7.054688 -26.90625 6.203125 -26.90625 C 5.359375 -26.90625 4.660156 -27.1875 4.109375 -27.75 C 3.554688 -28.320312 3.28125 -29.046875 3.28125 -29.921875 C 3.28125 -30.828125 3.554688 -31.5625 4.109375 -32.125 Z M 8.703125 0 L 3.71875 0 L 3.71875 -23.28125 L 8.703125 -23.28125 Z M 8.703125 0 "/></g></g></g><g fill="#000000" fill-opacity="1"><g transform="translate(112.223193, 328.443625)"><g><path d="M 17.109375 -23.453125 C 20.398438 -23.453125 23.070312 -22.347656 25.125 -20.140625 C 27.1875 -17.941406 28.21875 -15.078125 28.21875 -11.546875 C 28.21875 -8.046875 27.210938 -5.21875 25.203125 -3.0625 C 23.191406 -0.90625 20.519531 0.171875 17.1875 0.171875 C 13.457031 0.171875 10.71875 -1.226562 8.96875 -4.03125 L 8.96875 8.484375 L 3.9375 8.484375 L 3.9375 -23.28125 L 8.96875 -23.28125 L 8.96875 -19.25 C 10.71875 -22.050781 13.429688 -23.453125 17.109375 -23.453125 Z M 10.953125 -6.234375 C 12.285156 -4.816406 13.984375 -4.109375 16.046875 -4.109375 C 18.117188 -4.109375 19.816406 -4.816406 21.140625 -6.234375 C 22.472656 -7.648438 23.140625 -9.476562 23.140625 -11.71875 C 23.140625 -13.90625 22.472656 -15.707031 21.140625 -17.125 C 19.816406 -18.539062 18.117188 -19.25 16.046875 -19.25 C 13.984375 -19.25 12.285156 -18.539062 10.953125 -17.125 C 9.628906 -15.707031 8.96875 -13.90625 8.96875 -11.71875 C 8.96875 -9.476562 9.628906 -7.648438 10.953125 -6.234375 Z M 10.953125 -6.234375 "/></g></g></g><g fill="#000000" fill-opacity="1"><g transform="translate(141.973602, 328.443625)"><g><path d="M 17.671875 0 L 17.671875 -2.84375 C 16.015625 -0.800781 13.445312 0.21875 9.96875 0.21875 C 7.488281 0.21875 5.503906 -0.457031 4.015625 -1.8125 C 2.535156 -3.164062 1.796875 -4.894531 1.796875 -7 C 1.796875 -9.125 2.566406 -10.8125 4.109375 -12.0625 C 5.660156 -13.320312 7.820312 -13.96875 10.59375 -14 L 17.625 -14 L 17.625 -14.703125 C 17.625 -16.191406 17.148438 -17.34375 16.203125 -18.15625 C 15.253906 -18.96875 13.878906 -19.375 12.078125 -19.375 C 9.828125 -19.375 7.535156 -18.585938 5.203125 -17.015625 L 3.15625 -20.515625 C 4.925781 -21.566406 6.519531 -22.316406 7.9375 -22.765625 C 9.351562 -23.222656 11.097656 -23.453125 13.171875 -23.453125 C 16.140625 -23.453125 18.441406 -22.726562 20.078125 -21.28125 C 21.710938 -19.84375 22.546875 -17.835938 22.578125 -15.265625 L 22.625 0 Z M 11.03125 -3.765625 C 12.800781 -3.765625 14.304688 -4.175781 15.546875 -5 C 16.785156 -5.832031 17.476562 -6.894531 17.625 -8.1875 L 17.625 -10.328125 L 11.328125 -10.328125 C 9.671875 -10.328125 8.453125 -10.082031 7.671875 -9.59375 C 6.898438 -9.113281 6.515625 -8.320312 6.515625 -7.21875 C 6.515625 -6.164062 6.914062 -5.328125 7.71875 -4.703125 C 8.519531 -4.078125 9.625 -3.765625 11.03125 -3.765625 Z M 11.03125 -3.765625 "/></g></g></g><g fill="#000000" fill-opacity="1"><g transform="translate(167.611441, 328.443625)"><g><path d="M 17.328125 -23.453125 C 20.035156 -23.453125 22.15625 -22.65625 23.6875 -21.0625 C 25.21875 -19.476562 25.984375 -17.285156 25.984375 -14.484375 L 25.984375 0 L 20.953125 0 L 20.953125 -13.078125 C 20.953125 -14.828125 20.457031 -16.203125 19.46875 -17.203125 C 18.476562 -18.210938 17.109375 -18.71875 15.359375 -18.71875 C 13.492188 -18.695312 11.96875 -18.101562 10.78125 -16.9375 C 9.601562 -15.769531 8.925781 -14.25 8.75 -12.375 L 8.75 0 L 3.71875 0 L 3.71875 -23.28125 L 8.75 -23.28125 L 8.75 -18.8125 C 10.320312 -21.90625 13.179688 -23.453125 17.328125 -23.453125 Z M 17.328125 -23.453125 "/></g></g></g><g fill="#000000" fill-opacity="1"><g transform="translate(196.618084, 328.443625)"><g><path d="M 13.296875 -23.453125 C 17.296875 -23.453125 20.191406 -22.25 21.984375 -19.84375 C 23.773438 -17.4375 24.507812 -14.0625 24.1875 -9.71875 L 6.609375 -9.71875 C 7.015625 -7.90625 7.859375 -6.476562 9.140625 -5.4375 C 10.421875 -4.40625 11.984375 -3.890625 13.828125 -3.890625 C 16.453125 -3.890625 18.640625 -4.796875 20.390625 -6.609375 L 23.0625 -3.765625 C 20.664062 -1.140625 17.457031 0.171875 13.4375 0.171875 C 9.84375 0.171875 6.957031 -0.910156 4.78125 -3.078125 C 2.613281 -5.253906 1.53125 -8.09375 1.53125 -11.59375 C 1.53125 -15.09375 2.625 -17.9375 4.8125 -20.125 C 7 -22.3125 9.828125 -23.421875 13.296875 -23.453125 Z M 6.515625 -13.390625 L 19.8125 -13.390625 C 19.726562 -15.253906 19.101562 -16.722656 17.9375 -17.796875 C 16.769531 -18.878906 15.238281 -19.421875 13.34375 -19.421875 C 11.507812 -19.421875 9.984375 -18.878906 8.765625 -17.796875 C 7.554688 -16.722656 6.804688 -15.253906 6.515625 -13.390625 Z M 6.515625 -13.390625 "/></g></g></g><g fill="#000000" fill-opacity="1"><g transform="translate(222.343445, 328.443625)"><g><path d="M 17.328125 -23.453125 C 20.035156 -23.453125 22.15625 -22.65625 23.6875 -21.0625 C 25.21875 -19.476562 25.984375 -17.285156 25.984375 -14.484375 L 25.984375 0 L 20.953125 0 L 20.953125 -13.078125 C 20.953125 -14.828125 20.457031 -16.203125 19.46875 -17.203125 C 18.476562 -18.210938 17.109375 -18.71875 15.359375 -18.71875 C 13.492188 -18.695312 11.96875 -18.101562 10.78125 -16.9375 C 9.601562 -15.769531 8.925781 -14.25 8.75 -12.375 L 8.75 0 L 3.71875 0 L 3.71875 -23.28125 L 8.75 -23.28125 L 8.75 -18.8125 C 10.320312 -21.90625 13.179688 -23.453125 17.328125 -23.453125 Z M 17.328125 -23.453125 "/></g></g></g><g fill="#000000" fill-opacity="1"><g transform="translate(251.350089, 328.443625)"><g><path d="M 2.796875 -4.5625 C 3.328125 -5.101562 3.984375 -5.375 4.765625 -5.375 C 5.554688 -5.375 6.210938 -5.101562 6.734375 -4.5625 C 7.265625 -4.03125 7.53125 -3.351562 7.53125 -2.53125 C 7.53125 -1.6875 7.265625 -0.988281 6.734375 -0.4375 C 6.210938 0.113281 5.554688 0.390625 4.765625 0.390625 C 3.984375 0.390625 3.328125 0.113281 2.796875 -0.4375 C 2.273438 -0.988281 2.015625 -1.6875 2.015625 -2.53125 C 2.015625 -3.351562 2.273438 -4.03125 2.796875 -4.5625 Z M 2.796875 -4.5625 "/></g></g></g><g fill="#000000" fill-opacity="1"><g transform="translate(260.887714, 328.443625)"><g><path d="M 13.25 -23.453125 C 17.457031 -23.453125 20.664062 -22.179688 22.875 -19.640625 L 20.125 -16.40625 C 18.375 -18.1875 16.15625 -19.0625 13.46875 -19.03125 C 11.457031 -19.03125 9.800781 -18.335938 8.5 -16.953125 C 7.207031 -15.566406 6.5625 -13.78125 6.5625 -11.59375 C 6.5625 -9.40625 7.207031 -7.617188 8.5 -6.234375 C 9.800781 -4.847656 11.457031 -4.15625 13.46875 -4.15625 C 16.445312 -4.15625 18.738281 -5.085938 20.34375 -6.953125 L 23.140625 -4.15625 C 20.953125 -1.269531 17.65625 0.171875 13.25 0.171875 C 9.78125 0.171875 6.957031 -0.910156 4.78125 -3.078125 C 2.613281 -5.253906 1.53125 -8.09375 1.53125 -11.59375 C 1.53125 -15.125 2.613281 -17.984375 4.78125 -20.171875 C 6.957031 -22.359375 9.78125 -23.453125 13.25 -23.453125 Z M 13.25 -23.453125 "/></g></g></g><g fill="#000000" fill-opacity="1"><g transform="translate(285.56304, 328.443625)"><g><path d="M 13.6875 -23.453125 C 17.28125 -23.453125 20.195312 -22.363281 22.4375 -20.1875 C 24.6875 -18.019531 25.8125 -15.171875 25.8125 -11.640625 C 25.8125 -8.140625 24.6875 -5.296875 22.4375 -3.109375 C 20.195312 -0.921875 17.28125 0.171875 13.6875 0.171875 C 10.070312 0.171875 7.140625 -0.921875 4.890625 -3.109375 C 2.648438 -5.296875 1.53125 -8.140625 1.53125 -11.640625 C 1.53125 -15.171875 2.648438 -18.019531 4.890625 -20.1875 C 7.140625 -22.363281 10.070312 -23.453125 13.6875 -23.453125 Z M 13.6875 -19.125 C 11.59375 -19.125 9.878906 -18.421875 8.546875 -17.015625 C 7.222656 -15.617188 6.5625 -13.8125 6.5625 -11.59375 C 6.5625 -9.34375 7.222656 -7.519531 8.546875 -6.125 C 9.878906 -4.726562 11.59375 -4.03125 13.6875 -4.03125 C 15.789062 -4.03125 17.5 -4.726562 18.8125 -6.125 C 20.125 -7.519531 20.78125 -9.34375 20.78125 -11.59375 C 20.78125 -13.8125 20.113281 -15.617188 18.78125 -17.015625 C 17.457031 -18.421875 15.757812 -19.125 13.6875 -19.125 Z M 13.6875 -19.125 "/></g></g></g><g fill="#000000" fill-opacity="1"><g transform="translate(312.907157, 328.443625)"><g><path d="M 34.078125 -23.453125 C 36.734375 -23.453125 38.816406 -22.648438 40.328125 -21.046875 C 41.847656 -19.441406 42.609375 -17.253906 42.609375 -14.484375 L 42.609375 0 L 37.578125 0 L 37.578125 -13.078125 C 37.578125 -14.859375 37.085938 -16.25 36.109375 -17.25 C 35.140625 -18.257812 33.789062 -18.765625 32.0625 -18.765625 C 30.113281 -18.710938 28.5625 -18.003906 27.40625 -16.640625 C 26.257812 -15.285156 25.6875 -13.570312 25.6875 -11.5 L 25.6875 0 L 20.65625 0 L 20.65625 -13.078125 C 20.65625 -14.859375 20.164062 -16.25 19.1875 -17.25 C 18.207031 -18.257812 16.875 -18.765625 15.1875 -18.765625 C 13.195312 -18.710938 11.617188 -18.003906 10.453125 -16.640625 C 9.285156 -15.285156 8.703125 -13.570312 8.703125 -11.5 L 8.703125 0 L 3.71875 0 L 3.71875 -23.28125 L 8.703125 -23.28125 L 8.703125 -18.765625 C 10.253906 -21.890625 13.070312 -23.453125 17.15625 -23.453125 C 19.21875 -23.453125 20.941406 -22.960938 22.328125 -21.984375 C 23.710938 -21.003906 24.6875 -19.625 25.25 -17.84375 C 26.675781 -21.582031 29.617188 -23.453125 34.078125 -23.453125 Z M 34.078125 -23.453125 "/></g></g></g></svg>